<svg width="88" height="48" viewBox="0 0 88 48" fill="none" xmlns="http://www.w3.org/2000/svg">
<g filter="url(#filter0_d)">
<path d="M72.88 24.68H77.8V35.84C76.36 36.9867 74.68 37.8667 72.76 38.48C70.84 39.0933 68.8667 39.4 66.84 39.4C63.9867 39.4 61.4133 38.7867 59.12 37.56C56.8267 36.3067 55.0267 34.5867 53.72 32.4C52.4133 30.2133 51.76 27.7467 51.76 25C51.76 22.2533 52.4133 19.7867 53.72 17.6C55.0267 15.4133 56.8267 13.7067 59.12 12.48C61.44 11.2267 64.04 10.6 66.92 10.6C69.2667 10.6 71.4 10.9867 73.32 11.76C75.24 12.5333 76.8533 13.6667 78.16 15.16L74.88 18.36C72.7467 16.2267 70.1733 15.16 67.16 15.16C65.1867 15.16 63.4267 15.5733 61.88 16.4C60.36 17.2267 59.16 18.3867 58.28 19.88C57.4267 21.3733 57 23.08 57 25C57 26.8667 57.4267 28.5467 58.28 30.04C59.16 31.5333 60.36 32.7067 61.88 33.56C63.4267 34.4133 65.1733 34.84 67.12 34.84C69.3067 34.84 71.2267 34.36 72.88 33.4V24.68Z" fill="#5262E0"/>
</g>
<path d="M28.9274 5.99139C29.2092 5.34905 29.9605 5.05321 30.5841 5.37431C34.2239 7.24839 37.2268 10.1776 39.1904 13.792C41.1541 17.4064 41.9772 21.5199 41.5687 25.5933C41.4987 26.2912 40.8416 26.7605 40.1494 26.6474L39.6293 26.5623C38.937 26.4491 38.4725 25.7962 38.5349 25.0975C38.8383 21.6973 38.134 18.2723 36.4954 15.2562C34.8568 12.24 32.3668 9.78521 29.349 8.18928C28.7289 7.86136 28.4339 7.11631 28.7157 6.47397L28.9274 5.99139Z" fill="white"/>
<path d="M2.25716 26.3869C1.56344 26.4905 0.91289 26.0122 0.852489 25.3134C0.499953 21.2347 1.3796 17.133 3.39274 13.5459C5.40587 9.95886 8.44879 7.0712 12.114 5.24733C12.7419 4.93484 13.4891 5.24098 13.762 5.88713L13.9671 6.37258C14.24 7.01873 13.9348 7.75966 13.3103 8.07902C10.2708 9.63331 7.74729 12.0537 6.06737 15.047C4.38746 18.0403 3.63614 21.4553 3.89279 24.8594C3.94553 25.5588 3.47208 26.2053 2.77836 26.309L2.25716 26.3869Z" fill="white"/>
<path d="M33.0015 38.6871C33.4323 39.2406 33.3349 40.0422 32.7556 40.4378C29.375 42.7467 25.3696 43.9935 21.2562 44C17.1429 44.0066 13.1335 42.7726 9.74552 40.4744C9.16504 40.0807 9.06506 39.2794 9.49408 38.7245L9.8164 38.3076C10.2454 37.7527 11.0408 37.655 11.6255 38.0423C14.4715 39.9276 17.8188 40.9384 21.2513 40.933C24.6838 40.9275 28.0279 39.906 30.8679 38.0117C31.4514 37.6224 32.2471 37.7176 32.6779 38.2712L33.0015 38.6871Z" fill="white"/>
<path d="M26.1412 4.78824C26.1412 7.43271 23.9974 9.57647 21.3529 9.57647C18.7085 9.57647 16.5647 7.43271 16.5647 4.78824C16.5647 2.14377 18.7085 0 21.3529 0C23.9974 0 26.1412 2.14377 26.1412 4.78824ZM18.9588 4.78824C18.9588 6.11047 20.0307 7.18236 21.3529 7.18236C22.6752 7.18236 23.7471 6.11047 23.7471 4.78824C23.7471 3.466 22.6752 2.39412 21.3529 2.39412C20.0307 2.39412 18.9588 3.466 18.9588 4.78824Z" fill="#5262E0"/>
<path d="M42.447 33C42.447 35.6445 40.3033 37.7882 37.6588 37.7882C35.0143 37.7882 32.8706 35.6445 32.8706 33C32.8706 30.3555 35.0143 28.2118 37.6588 28.2118C40.3033 28.2118 42.447 30.3555 42.447 33ZM35.2647 33C35.2647 34.3222 36.3366 35.3941 37.6588 35.3941C38.981 35.3941 40.0529 34.3222 40.0529 33C40.0529 31.6778 38.981 30.6059 37.6588 30.6059C36.3366 30.6059 35.2647 31.6778 35.2647 33Z" fill="#5262E0"/>
<path d="M9.57647 33C9.57647 35.6445 7.4327 37.7882 4.78823 37.7882C2.14377 37.7882 0 35.6445 0 33C0 30.3555 2.14377 28.2118 4.78823 28.2118C7.4327 28.2118 9.57647 30.3555 9.57647 33ZM2.39412 33C2.39412 34.3222 3.466 35.3941 4.78823 35.3941C6.11047 35.3941 7.18235 34.3222 7.18235 33C7.18235 31.6778 6.11047 30.6059 4.78823 30.6059C3.466 30.6059 2.39412 31.6778 2.39412 33Z" fill="#5262E0"/>
<defs>
<filter id="filter0_d" x="47.76" y="10.6" width="34.4" height="36.8" filterUnits="userSpaceOnUse" color-interpolation-filters="sRGB">
<feFlood flood-opacity="0" result="BackgroundImageFix"/>
<feColorMatrix in="SourceAlpha" type="matrix" values="0 0 0 0 0 0 0 0 0 0 0 0 0 0 0 0 0 0 127 0"/>
<feOffset dy="4"/>
<feGaussianBlur stdDeviation="2"/>
<feColorMatrix type="matrix" values="0 0 0 0 0 0 0 0 0 0 0 0 0 0 0 0 0 0 0.1 0"/>
<feBlend mode="normal" in2="BackgroundImageFix" result="effect1_dropShadow"/>
<feBlend mode="normal" in="SourceGraphic" in2="effect1_dropShadow" result="shape"/>
</filter>
</defs>
</svg>
