<svg width="297" height="297" viewBox="0 0 297 297" fill="none" xmlns="http://www.w3.org/2000/svg">
<path d="M190.75 51.4963C192.303 47.956 196.444 46.3254 199.881 48.0952C219.942 58.4245 236.493 74.5692 247.316 94.4905C258.139 114.412 262.676 137.084 260.424 159.535C260.038 163.382 256.416 165.968 252.601 165.344L249.735 164.876C245.919 164.252 243.359 160.653 243.703 156.802C245.375 138.061 241.493 119.184 232.462 102.56C223.43 85.9365 209.706 72.4065 193.073 63.6102C189.656 61.8029 188.03 57.6965 189.583 54.1561L190.75 51.4963Z" fill="white"/>
<path d="M43.7531 163.909C39.9296 164.48 36.344 161.844 36.0111 157.992C34.068 135.512 38.9163 112.905 50.012 93.1342C61.1076 73.3635 77.8791 57.4479 98.0802 47.3954C101.541 45.673 105.659 47.3603 107.164 50.9217L108.294 53.5973C109.798 57.1587 108.116 61.2424 104.674 63.0026C87.9216 71.5693 74.0127 84.9093 64.7536 101.407C55.4945 117.906 51.3535 136.728 52.7681 155.49C53.0588 159.345 50.4493 162.908 46.6257 163.479L43.7531 163.909Z" fill="white"/>
<path d="M213.205 231.703C215.579 234.754 215.042 239.172 211.85 241.352C193.217 254.078 171.14 260.95 148.469 260.986C125.798 261.022 103.699 254.221 85.0262 241.554C81.8268 239.384 81.2757 234.968 83.6403 231.909L85.4169 229.611C87.7815 226.553 92.1651 226.014 95.3881 228.149C111.074 238.54 129.523 244.112 148.442 244.081C167.361 244.051 185.792 238.421 201.445 227.98C204.661 225.835 209.046 226.36 211.421 229.411L213.205 231.703Z" fill="white"/>
<path d="M175.394 44.8652C175.394 59.4406 163.578 71.2562 149.003 71.2562C134.427 71.2562 122.612 59.4406 122.612 44.8652C122.612 30.2899 134.427 18.4742 149.003 18.4742C163.578 18.4742 175.394 30.2899 175.394 44.8652ZM135.807 44.8652C135.807 52.1529 141.715 58.0607 149.003 58.0607C156.29 58.0607 162.198 52.1529 162.198 44.8652C162.198 37.5775 156.29 31.6697 149.003 31.6697C141.715 31.6697 135.807 37.5775 135.807 44.8652Z" fill="#5262E0"/>
<path d="M265.266 200.358C265.266 214.933 253.45 226.749 238.875 226.749C224.299 226.749 212.484 214.933 212.484 200.358C212.484 185.783 224.299 173.967 238.875 173.967C253.45 173.967 265.266 185.783 265.266 200.358ZM225.679 200.358C225.679 207.646 231.587 213.554 238.875 213.554C246.162 213.554 252.07 207.646 252.07 200.358C252.07 193.07 246.162 187.163 238.875 187.163C231.587 187.163 225.679 193.07 225.679 200.358Z" fill="#5262E0"/>
<path d="M84.095 200.358C84.095 214.933 72.2794 226.749 57.704 226.749C43.1287 226.749 31.313 214.933 31.313 200.358C31.313 185.783 43.1287 173.967 57.704 173.967C72.2794 173.967 84.095 185.783 84.095 200.358ZM44.5085 200.358C44.5085 207.646 50.4164 213.554 57.704 213.554C64.9917 213.554 70.8995 207.646 70.8995 200.358C70.8995 193.07 64.9917 187.163 57.704 187.163C50.4164 187.163 44.5085 193.07 44.5085 200.358Z" fill="#5262E0"/>
</svg>
